P1 
9 9 
110110010
111011000
011101100
101100110
110011101
011011011
001110111
100101111
000011111
