P1 
24 24 
100001100000110001110100
010000001100011001000000
001000100001000000001110
000100010010000100110000
000010010100001110000000
100001100000110001000000
101001100001100000010101
000110010100001111100000
010000001100001000000000
010010011100011001100000
000100000010000000111100
001000100001100000000101
100001100001100000000001
110001000100010001000000
010010011100001000000000
000110010000000110100000
000010010000000110000000
110001010100010001110000
100100010110000101110000
100100100010000001111100
001000000010000000011110
101000100011000000011110
001000000000000000001110
000000100001100000000001
